<svg id="visual" viewBox="0 0 1920 1080" width="1920" height="1080" xmlns="http://www.w3.org/2000/svg" xmlns:xlink="http://www.w3.org/1999/xlink" version="1.1"><rect x="0" y="0" width="1920" height="1080" fill="#DCE2ED"></rect><defs><linearGradient id="grad1_0" x1="43.8%" y1="0%" x2="100%" y2="100%"><stop offset="14.444444444444446%" stop-color="#fbae3c" stop-opacity="1"></stop><stop offset="85.55555555555554%" stop-color="#fbae3c" stop-opacity="1"></stop></linearGradient></defs><defs><linearGradient id="grad1_1" x1="43.8%" y1="0%" x2="100%" y2="100%"><stop offset="14.444444444444446%" stop-color="#fbae3c" stop-opacity="1"></stop><stop offset="85.55555555555554%" stop-color="#ffa476" stop-opacity="1"></stop></linearGradient></defs><defs><linearGradient id="grad1_2" x1="43.8%" y1="0%" x2="100%" y2="100%"><stop offset="14.444444444444446%" stop-color="#ffa7ae" stop-opacity="1"></stop><stop offset="85.55555555555554%" stop-color="#ffa476" stop-opacity="1"></stop></linearGradient></defs><defs><linearGradient id="grad1_3" x1="43.8%" y1="0%" x2="100%" y2="100%"><stop offset="14.444444444444446%" stop-color="#ffa7ae" stop-opacity="1"></stop><stop offset="85.55555555555554%" stop-color="#ffb6da" stop-opacity="1"></stop></linearGradient></defs><defs><linearGradient id="grad1_4" x1="43.8%" y1="0%" x2="100%" y2="100%"><stop offset="14.444444444444446%" stop-color="#f2c8f3" stop-opacity="1"></stop><stop offset="85.55555555555554%" stop-color="#ffb6da" stop-opacity="1"></stop></linearGradient></defs><defs><linearGradient id="grad1_5" x1="43.8%" y1="0%" x2="100%" y2="100%"><stop offset="14.444444444444446%" stop-color="#f2c8f3" stop-opacity="1"></stop><stop offset="85.55555555555554%" stop-color="#ddd8f7" stop-opacity="1"></stop></linearGradient></defs><defs><linearGradient id="grad1_6" x1="43.8%" y1="0%" x2="100%" y2="100%"><stop offset="14.444444444444446%" stop-color="#dce2ed" stop-opacity="1"></stop><stop offset="85.55555555555554%" stop-color="#ddd8f7" stop-opacity="1"></stop></linearGradient></defs><defs><linearGradient id="grad2_0" x1="0%" y1="0%" x2="56.3%" y2="100%"><stop offset="14.444444444444446%" stop-color="#fbae3c" stop-opacity="1"></stop><stop offset="85.55555555555554%" stop-color="#fbae3c" stop-opacity="1"></stop></linearGradient></defs><defs><linearGradient id="grad2_1" x1="0%" y1="0%" x2="56.3%" y2="100%"><stop offset="14.444444444444446%" stop-color="#ffa476" stop-opacity="1"></stop><stop offset="85.55555555555554%" stop-color="#fbae3c" stop-opacity="1"></stop></linearGradient></defs><defs><linearGradient id="grad2_2" x1="0%" y1="0%" x2="56.3%" y2="100%"><stop offset="14.444444444444446%" stop-color="#ffa476" stop-opacity="1"></stop><stop offset="85.55555555555554%" stop-color="#ffa7ae" stop-opacity="1"></stop></linearGradient></defs><defs><linearGradient id="grad2_3" x1="0%" y1="0%" x2="56.3%" y2="100%"><stop offset="14.444444444444446%" stop-color="#ffb6da" stop-opacity="1"></stop><stop offset="85.55555555555554%" stop-color="#ffa7ae" stop-opacity="1"></stop></linearGradient></defs><defs><linearGradient id="grad2_4" x1="0%" y1="0%" x2="56.3%" y2="100%"><stop offset="14.444444444444446%" stop-color="#ffb6da" stop-opacity="1"></stop><stop offset="85.55555555555554%" stop-color="#f2c8f3" stop-opacity="1"></stop></linearGradient></defs><defs><linearGradient id="grad2_5" x1="0%" y1="0%" x2="56.3%" y2="100%"><stop offset="14.444444444444446%" stop-color="#ddd8f7" stop-opacity="1"></stop><stop offset="85.55555555555554%" stop-color="#f2c8f3" stop-opacity="1"></stop></linearGradient></defs><defs><linearGradient id="grad2_6" x1="0%" y1="0%" x2="56.3%" y2="100%"><stop offset="14.444444444444446%" stop-color="#ddd8f7" stop-opacity="1"></stop><stop offset="85.55555555555554%" stop-color="#dce2ed" stop-opacity="1"></stop></linearGradient></defs><g transform="translate(1920, 0)"><path d="M0 648C-66.8 642 -133.5 635.9 -200.2 616.3C-267 596.6 -333.6 563.4 -369.7 508.9C-405.8 454.3 -411.4 378.6 -448.2 325.6C-485 272.7 -553 242.7 -591.6 192.2C-630.1 141.7 -639 70.9 -648 0L0 0Z" fill="#dadef3"></path><path d="M0 555.4C-57.2 550.3 -114.5 545.1 -171.6 528.2C-228.8 511.4 -285.9 482.9 -316.9 436.2C-347.9 389.4 -352.6 324.5 -384.2 279.1C-415.7 233.8 -474 208 -507 164.8C-540.1 121.5 -547.7 60.7 -555.4 0L0 0Z" fill="#e6d1f7"></path><path d="M0 462.9C-47.7 458.5 -95.4 454.2 -143 440.2C-190.7 426.2 -238.3 402.4 -264.1 363.5C-289.9 324.5 -293.8 270.4 -320.1 232.6C-346.4 194.8 -395 173.3 -422.5 137.3C-450 101.2 -456.5 50.6 -462.9 0L0 0Z" fill="#ffbfe9"></path><path d="M0 370.3C-38.2 366.8 -76.3 363.4 -114.4 352.2C-152.5 340.9 -190.6 321.9 -211.3 290.8C-231.9 259.6 -235.1 216.3 -256.1 186.1C-277.1 155.8 -316 138.7 -338 109.8C-360 81 -365.2 40.5 -370.3 0L0 0Z" fill="#ffadc6"></path><path d="M0 277.7C-28.6 275.1 -57.2 272.5 -85.8 264.1C-114.4 255.7 -143 241.5 -158.5 218.1C-173.9 194.7 -176.3 162.2 -192.1 139.6C-207.9 116.9 -237 104 -253.5 82.4C-270 60.7 -273.9 30.4 -277.7 0L0 0Z" fill="#ffa393"></path><path d="M0 185.1C-19.1 183.4 -38.2 181.7 -57.2 176.1C-76.3 170.5 -95.3 161 -105.6 145.4C-116 129.8 -117.5 108.2 -128.1 93C-138.6 77.9 -158 69.3 -169 54.9C-180 40.5 -182.6 20.2 -185.1 0L0 0Z" fill="#ffa859"></path><path d="M0 92.6C-9.5 91.7 -19.1 90.8 -28.6 88C-38.1 85.2 -47.7 80.5 -52.8 72.7C-58 64.9 -58.8 54.1 -64 46.5C-69.3 39 -79 34.7 -84.5 27.5C-90 20.2 -91.3 10.1 -92.6 0L0 0Z" fill="#fbae3c"></path></g><g transform="translate(0, 1080)"><path d="M0 -648C74.4 -652.2 148.8 -656.4 200.2 -616.3C251.7 -576.1 280.3 -491.6 319.2 -439.3C358.1 -387 407.3 -366.9 457.9 -332.7C508.5 -298.5 560.6 -250.3 592.5 -192.5C624.4 -134.7 636.2 -67.4 648 0L0 0Z" fill="#dadef3"></path><path d="M0 -555.4C63.8 -559 127.5 -562.7 171.6 -528.2C215.8 -493.8 240.2 -421.4 273.6 -376.5C306.9 -331.7 349.1 -314.4 392.5 -285.2C435.9 -255.9 480.5 -214.5 507.9 -165C535.2 -115.5 545.3 -57.7 555.4 0L0 0Z" fill="#e6d1f7"></path><path d="M0 -462.9C53.1 -465.9 106.3 -468.9 143 -440.2C179.8 -411.5 200.2 -351.2 228 -313.8C255.8 -276.4 290.9 -262 327.1 -237.6C363.2 -213.2 400.4 -178.8 423.2 -137.5C446 -96.2 454.4 -48.1 462.9 0L0 0Z" fill="#ffbfe9"></path><path d="M0 -370.3C42.5 -372.7 85 -375.1 114.4 -352.2C143.8 -329.2 160.2 -280.9 182.4 -251C204.6 -221.1 232.7 -209.6 261.7 -190.1C290.6 -170.6 320.3 -143 338.6 -110C356.8 -77 363.6 -38.5 370.3 0L0 0Z" fill="#ffadc6"></path><path d="M0 -277.7C31.9 -279.5 63.8 -281.3 85.8 -264.1C107.9 -246.9 120.1 -210.7 136.8 -188.3C153.5 -165.8 174.5 -157.2 196.2 -142.6C217.9 -127.9 240.3 -107.3 253.9 -82.5C267.6 -57.7 272.7 -28.9 277.7 0L0 0Z" fill="#ffa393"></path><path d="M0 -185.1C21.3 -186.3 42.5 -187.6 57.2 -176.1C71.9 -164.6 80.1 -140.5 91.2 -125.5C102.3 -110.6 116.4 -104.8 130.8 -95.1C145.3 -85.3 160.2 -71.5 169.3 -55C178.4 -38.5 181.8 -19.2 185.1 0L0 0Z" fill="#ffa859"></path><path d="M0 -92.6C10.6 -93.2 21.3 -93.8 28.6 -88C36 -82.3 40 -70.2 45.6 -62.8C51.2 -55.3 58.2 -52.4 65.4 -47.5C72.6 -42.6 80.1 -35.8 84.6 -27.5C89.2 -19.2 90.9 -9.6 92.6 0L0 0Z" fill="#fbae3c"></path></g></svg>